<svg width="22" height="22" viewBox="0 0 22 22" fill="none" xmlns="http://www.w3.org/2000/svg">
<path d="M15.5305 5.46512C15.7553 5.46512 15.9739 5.50576 16.1777 5.58351C16.3816 5.50572 16.6002 5.46512 16.825 5.46512H18.0764V4.04175C18.0764 3.70804 17.8059 3.4375 17.4721 3.4375H13.5888C13.4286 3.4375 13.2749 3.50115 13.1616 3.6145L12.9417 3.83445L12.7217 3.6145C12.6084 3.50119 12.4547 3.4375 12.2945 3.4375H1.29175C0.958042 3.4375 0.6875 3.70804 0.6875 4.04175V14.3972C0.6875 14.7309 0.958042 15.0014 1.29175 15.0014H2.71508V7.27786C2.71508 6.27831 3.52827 5.46512 4.52782 5.46512H15.5305Z" fill="#FABD05"/>
<path d="M20.7083 6.67358H16.825C16.6647 6.67358 16.511 6.73723 16.3977 6.85059L16.1778 7.07053L15.9578 6.85059C15.8445 6.73727 15.6908 6.67358 15.5306 6.67358H4.52783C4.19413 6.67358 3.92358 6.94413 3.92358 7.27783V17.6333C3.92358 17.967 4.19413 18.2375 4.52783 18.2375H15.5305C15.6908 18.2375 15.8444 18.1739 15.9577 18.0605L16.1777 17.8406L16.3976 18.0605C16.511 18.1738 16.6646 18.2375 16.8249 18.2375H20.7083C21.042 18.2375 21.3125 17.967 21.3125 17.6333V7.27783C21.3125 6.94413 21.042 6.67358 20.7083 6.67358ZM7.76394 9.90965C8.09749 9.90965 8.36819 10.1804 8.36819 10.5139C8.36819 10.8474 8.09749 11.1182 7.76394 11.1182C7.4304 11.1182 7.15969 10.8474 7.15969 10.5139C7.15969 10.1804 7.4304 9.90965 7.76394 9.90965ZM11.6472 15.0015C11.3137 15.0015 11.043 14.7307 11.043 14.3972C11.043 14.0637 11.3137 13.793 11.6472 13.793C11.9808 13.793 12.2515 14.0637 12.2515 14.3972C12.2515 14.7307 11.9808 15.0015 11.6472 15.0015ZM12.0745 10.9411L8.19119 14.8244C8.0732 14.9424 7.91855 15.0014 7.76394 15.0014C7.6093 15.0014 7.45469 14.9424 7.3367 14.8244C7.10072 14.5885 7.10072 14.2059 7.3367 13.9699L11.22 10.0866C11.456 9.85064 11.8385 9.85064 12.0745 10.0866C12.3105 10.3226 12.3105 10.7052 12.0745 10.9411ZM16.782 16.0152C16.782 16.3489 16.5114 16.6195 16.1777 16.6195C15.844 16.6195 15.5735 16.3489 15.5735 16.0152V15.368C15.5735 15.0343 15.844 14.7638 16.1777 14.7638C16.5114 14.7638 16.782 15.0343 16.782 15.368V16.0152ZM16.782 12.7791C16.782 13.1129 16.5114 13.3834 16.1777 13.3834C15.844 13.3834 15.5735 13.1129 15.5735 12.7791V12.132C15.5735 11.7983 15.844 11.5277 16.1777 11.5277C16.5114 11.5277 16.782 11.7983 16.782 12.132V12.7791ZM16.782 9.54308C16.782 9.87678 16.5114 10.1473 16.1777 10.1473C15.844 10.1473 15.5735 9.87678 15.5735 9.54308V8.89589C15.5735 8.56218 15.844 8.29164 16.1777 8.29164C16.5114 8.29164 16.782 8.56218 16.782 8.89589V9.54308Z" fill="#FFDC5A"/>
</svg>
